<?xml version="1.0" encoding="utf-8"?>
<!-- Generator: Adobe Illustrator 22.0.0, SVG Export Plug-In . SVG Version: 6.00 Build 0)  -->
<svg version="1.1" id="Layer_1" xmlns="http://www.w3.org/2000/svg" xmlns:xlink="http://www.w3.org/1999/xlink" x="0px" y="0px"
	 viewBox="0 0 66.1 72.5" style="enable-background:new 0 0 66.1 72.5;" xml:space="preserve">
<style type="text/css">
	.st0{fill:#C24465;}
</style>
<path id="coffee_1_" class="st0" d="M19.6,15.8V4.9c0-2,1.6-3.6,3.6-3.6s3.6,1.6,3.6,3.6v10.9c0,2-1.6,3.6-3.6,3.6
	S19.6,17.8,19.6,15.8z M37.8,19.5c2,0,3.6-1.6,3.6-3.6V4.9c0-2-1.6-3.6-3.6-3.6s-3.6,1.6-3.6,3.6v10.9
	C34.2,17.8,35.8,19.5,37.8,19.5z M52.4,52.3h-8.6c-3.3,9.3-12.6,15.7-23.2,14.4C9.5,65.4,1.4,55.5,1.4,44.2V34.1
	c0-4,3.3-7.3,7.3-7.3h36.5h7.3C70.6,26.8,70.6,52.3,52.4,52.3z M37.8,34.1H12.3c-2,0-3.6,1.6-3.6,3.6v6.7c0,7.6,5.6,14.4,13.1,15.1
	c8.7,0.8,16-6,16-14.5V34.1z M52.4,34.1h-7.3V45h7.3C60.9,45,60.9,34.1,52.4,34.1z M8.7,19.5c2,0,3.6-1.6,3.6-3.6V4.9
	c0-2-1.6-3.6-3.6-3.6S5,2.9,5,4.9v10.9C5,17.8,6.6,19.5,8.7,19.5z"/>
</svg>
