<?xml version="1.0" encoding="utf-8"?>
<!-- Generator: Adobe Illustrator 22.0.0, SVG Export Plug-In . SVG Version: 6.00 Build 0)  -->
<svg version="1.1" id="Layer_1" xmlns="http://www.w3.org/2000/svg" xmlns:xlink="http://www.w3.org/1999/xlink" x="0px" y="0px"
	 viewBox="0 0 21.1 28.4" style="enable-background:new 0 0 21.1 28.4;" xml:space="preserve">
<path id="tenis_x5F_round" d="M13.4,4.2C7.4,3.7,3,9.9,5.3,15.3l-4,4c-0.8,0.8-0.8,2,0,2.8l1.4,1.4c0.8,0.8,2,0.8,2.8,0l4-4
	c5.2,2.2,11.3-1.7,11.1-7.6C20.6,8,17.4,4.6,13.4,4.2z M3.4,21.5L3.4,21.5c-0.4-0.4-0.4-1,0-1.4l3-3c0.4,0.5,0.9,1,1.4,1.4l-3,3
	C4.4,21.9,3.8,21.9,3.4,21.5z M12.9,18.2c-3.4,0.1-6.3-2.8-6.2-6.2L12.9,18.2z M15.2,17.6L7.2,9.7C8.9,6,14,5.1,16.9,8
	C19.8,10.9,18.9,15.9,15.2,17.6z"/>
</svg>
