<?xml version="1.0" encoding="utf-8"?>
<!-- Generator: Adobe Illustrator 22.0.0, SVG Export Plug-In . SVG Version: 6.00 Build 0)  -->
<svg version="1.1" id="Layer_1" xmlns="http://www.w3.org/2000/svg" xmlns:xlink="http://www.w3.org/1999/xlink" x="0px" y="0px"
	 viewBox="0 0 17.8 28.4" style="enable-background:new 0 0 17.8 28.4;" xml:space="preserve">
<style type="text/css">
	.st0{fill:#FFFFFF;}
	.st1{fill:#F1F2F2;stroke:#FFFFFF;stroke-miterlimit:10;}
</style>
<path id="coffee_1_" class="st0" d="M5.1,4V1c0-0.6,0.4-1,1-1s1,0.4,1,1v3c0,0.6-0.4,1-1,1S5.1,4.6,5.1,4z M10.1,5c0.6,0,1-0.4,1-1
	V1c0-0.6-0.4-1-1-1s-1,0.4-1,1v3C9.1,4.6,9.5,5,10.1,5z M14.1,14h-2.3c-0.9,2.5-3.5,4.3-6.4,4c-3.1-0.4-5.3-3.1-5.3-6.2V9
	c0-1.1,0.9-2,2-2h10h2C19.1,7,19.1,14,14.1,14z M10.1,9h-7c-0.6,0-1,0.4-1,1v1.8c0,2.1,1.5,4,3.6,4.2c2.4,0.2,4.4-1.6,4.4-4V9z
	 M14.1,9h-2v3h2C16.4,12,16.4,9,14.1,9z M2.1,5c0.6,0,1-0.4,1-1V1c0-0.6-0.4-1-1-1s-1,0.4-1,1v3C1.1,4.6,1.5,5,2.1,5z"/>
<path id="arrow_x5F_down_1_" class="st1" d="M7.2,25l3.8-3.8c0.2-0.2,0.6-0.2,0.8,0h0c0.2,0.2,0.2,0.6,0,0.8
	c0.1-0.1-4.7,4.7-4.8,4.8c-0.5,0.5-1.2,0.5-1.7,0l0,0L0.4,22c-0.2-0.2-0.2-0.6,0-0.8l0,0C0.6,21,1,21,1.2,21.2L5,25
	C5,25,6.1,26.3,7.2,25z"/>
</svg>
