<?xml version="1.0" encoding="utf-8"?>
<!-- Generator: Adobe Illustrator 22.0.0, SVG Export Plug-In . SVG Version: 6.00 Build 0)  -->
<svg version="1.1" id="Layer_1" xmlns="http://www.w3.org/2000/svg" xmlns:xlink="http://www.w3.org/1999/xlink" x="0px" y="0px"
	 viewBox="0 0 32.6 32.9" style="enable-background:new 0 0 32.6 32.9;" xml:space="preserve">
<style type="text/css">
	.st0{fill:#FFFFFF;}
</style>
<path id="github" class="st0" d="M16,6c5.5,0,10,4.6,10,10.3c0,4.5-2.9,8.4-6.8,9.7c-0.5,0.1-0.7-0.2-0.7-0.5c0-0.3,0-1.4,0-2.8
	c0-1-0.3-1.6-0.7-1.9c2.2-0.3,4.6-1.1,4.6-5.1c0-1.1-0.4-2-1-2.8c0.1-0.3,0.4-1.3-0.1-2.7c0,0-0.8-0.3-2.7,1.1
	C17.7,11.1,16.8,11,16,11c-0.8,0-1.7,0.1-2.5,0.3c-1.9-1.3-2.8-1.1-2.8-1.1c-0.5,1.4-0.2,2.5-0.1,2.7c-0.6,0.7-1,1.6-1,2.8
	c0,3.9,2.3,4.8,4.6,5.1c-0.3,0.3-0.5,0.7-0.6,1.4c-0.6,0.3-2,0.7-2.9-0.9c0,0-0.5-1-1.5-1.1c0,0-1,0-0.1,0.6c0,0,0.7,0.3,1.1,1.5
	c0,0,0.6,1.8,3.4,1.2c0,0.9,0,1.7,0,1.9c0,0.3-0.2,0.6-0.7,0.5c-4-1.4-6.8-5.2-6.8-9.7C6,10.6,10.5,6,16,6"/>
</svg>
