<?xml version="1.0" encoding="utf-8"?>
<!-- Generator: Adobe Illustrator 22.0.0, SVG Export Plug-In . SVG Version: 6.00 Build 0)  -->
<svg version="1.1" id="Layer_1" xmlns="http://www.w3.org/2000/svg" xmlns:xlink="http://www.w3.org/1999/xlink" x="0px" y="0px"
	 viewBox="0 0 21.1 28.4" style="enable-background:new 0 0 21.1 28.4;" xml:space="preserve">
<path id="object_x5F_connection_x5F_round_5_" d="M10.6,8.2c0,0.6-0.4,1-1,1h-3c-0.6,0-1,0.5-1,1v3c0,0.6-0.4,1-1,1s-1-0.4-1-1v-4
	c0-1.1,0.9-2,2-2h4C10.1,7.2,10.6,7.6,10.6,8.2z M20.6,6.2v4c0,1.1-0.9,2-2,2h-4c-1.1,0-2-0.9-2-2v-4c0-1.1,0.9-2,2-2h4
	C19.7,4.2,20.6,5.1,20.6,6.2z M18.6,7.2c0-0.6-0.4-1-1-1h-2c-0.6,0-1,0.4-1,1v2c0,0.6,0.4,1,1,1h2c0.6,0,1-0.4,1-1V7.2z M16.6,14.2
	c-0.6,0-1,0.4-1,1v3c0,0.6-0.4,1-1,1h-3c-0.6,0-1,0.4-1,1c0,0.6,0.4,1,1,1h4c1.1,0,2-0.9,2-2v-4C17.6,14.7,17.1,14.2,16.6,14.2z
	 M8.6,18.2v4c0,1.1-0.9,2-2,2h-4c-1.1,0-2-0.9-2-2v-4c0-1.1,0.9-2,2-2h4C7.7,16.2,8.6,17.1,8.6,18.2z M6.6,19.2c0-0.6-0.4-1-1-1h-2
	c-0.6,0-1,0.4-1,1v2c0,0.6,0.4,1,1,1h2c0.6,0,1-0.4,1-1V19.2z"/>
</svg>
