<?xml version="1.0" encoding="utf-8"?>
<!-- Generator: Adobe Illustrator 22.0.0, SVG Export Plug-In . SVG Version: 6.00 Build 0)  -->
<svg version="1.1" id="Layer_1" xmlns="http://www.w3.org/2000/svg" xmlns:xlink="http://www.w3.org/1999/xlink" x="0px" y="0px"
	 viewBox="0 0 21.1 28.4" style="enable-background:new 0 0 21.1 28.4;" xml:space="preserve">
<path id="microphone_3_" d="M11.3,15.7c2.2,0,4-1.8,4-4v-6c0-1.1-0.9-1.5-2-1.5h-4c-1.1,0-2,0.4-2,1.5c0,6.8,0,2.2,0,6
	C7.3,13.9,9.1,15.7,11.3,15.7z M9.3,6.7c0-0.6,0.5-0.5,1-0.5h2c0.6,0,1-0.1,1,0.5v5c0,1.1-0.9,2-2,2s-2-0.9-2-2V6.7z M15.3,23.1
	C15.3,23.1,15.3,23.1,15.3,23.1c0-0.1,0-0.1,0-0.1V23.1z M12.3,19.6v2.6h2c0.5,0,0.9,0.3,1,0.8c0,0.5-0.4,1.2-1,1.2c0.2,0-5.9,0-6,0
	c-0.6,0-1-0.6-1-1.1v-0.1c0-0.6,0.5-0.8,1-0.8h2v-2.6c-3-0.4-6.5-2.4-6.9-6.6c-0.1-0.6,0.4-0.9,1-0.9h0c0.5,0,0.9,0.3,1,0.7
	c0.8,6.8,11.1,6.7,11.9-0.1c0.1-0.5,0.5-0.6,1-0.6h0c0.6,0,1.1,0.3,1,0.9C18.8,17.2,16.3,19.3,12.3,19.6z"/>
</svg>
