<?xml version="1.0" encoding="utf-8"?>
<!-- Generator: Adobe Illustrator 22.0.0, SVG Export Plug-In . SVG Version: 6.00 Build 0)  -->
<svg version="1.1" id="Layer_1" xmlns="http://www.w3.org/2000/svg" xmlns:xlink="http://www.w3.org/1999/xlink" x="0px" y="0px"
	 viewBox="0 0 32.6 32.9" style="enable-background:new 0 0 32.6 32.9;" xml:space="preserve">
<style type="text/css">
	.st0{fill:#FFFFFF;}
</style>
<path id="moon_6_" class="st0" d="M16.9,1.6C22.4,11.9,11,23.2,0.7,17.7c0.6,7.5,7,13.6,14.8,13.6c8.2,0,14.9-6.7,14.9-14.9
	C30.5,8.5,24.4,2.2,16.9,1.6z M15.6,28.3c-4.6,0-8.5-2.6-10.5-6.3c9.2,0.8,16.9-6.9,16.1-16.1c3.8,2,6.3,6,6.3,10.5
	C27.5,23,22.2,28.3,15.6,28.3z M3.2,11.5c-0.5-0.7-0.4-1.6,0.3-2.1c0.7-0.5,1.6-0.4,2.1,0.3c0.5,0.7,0.4,1.6-0.3,2.1
	C4.6,12.3,3.7,12.2,3.2,11.5z M11.2,10.3c0.5,0.7,0.4,1.6-0.3,2.1c-0.7,0.5-1.6,0.4-2.1-0.3c-0.5-0.7-0.4-1.6,0.3-2.1
	C9.8,9.5,10.7,9.6,11.2,10.3z M7.9,6.4C7.4,5.7,7.6,4.8,8.2,4.3c0.7-0.5,1.6-0.4,2.1,0.3c0.5,0.7,0.4,1.6-0.3,2.1
	C9.4,7.2,8.4,7.1,7.9,6.4z"/>
</svg>
