<?xml version="1.0" encoding="utf-8"?>
<!-- Generator: Adobe Illustrator 22.0.0, SVG Export Plug-In . SVG Version: 6.00 Build 0)  -->
<svg version="1.1" id="Layer_1" xmlns="http://www.w3.org/2000/svg" xmlns:xlink="http://www.w3.org/1999/xlink" x="0px" y="0px"
	 viewBox="0 0 21.1 28.4" style="enable-background:new 0 0 21.1 28.4;" xml:space="preserve">
<path id="sun_x5F_star_2_" d="M10.6,7.2c-3.9,0-7,3.1-7,7c0,3.9,3.1,7,7,7s7-3.1,7-7C17.6,10.3,14.4,7.2,10.6,7.2z M10.6,19.2
	c-2.8,0-5-2.2-5-5s2.2-5,5-5s5,2.2,5,5S13.3,19.2,10.6,19.2z M9.6,5.2c0-0.6,0.4-1,1-1s1,0.4,1,1c0,0.6-0.4,1-1,1S9.6,5.8,9.6,5.2z
	 M11.6,23.2c0,0.6-0.4,1-1,1s-1-0.4-1-1c0-0.6,0.4-1,1-1S11.6,22.6,11.6,23.2z M20.6,14.2c0,0.6-0.4,1-1,1s-1-0.4-1-1
	c0-0.6,0.4-1,1-1S20.6,13.6,20.6,14.2z M2.6,14.2c0,0.6-0.4,1-1,1s-1-0.4-1-1c0-0.6,0.4-1,1-1S2.6,13.6,2.6,14.2z M17.6,7.1
	c0.4,0.4,0.4,1,0,1.4c-0.4,0.4-1,0.4-1.4,0c-0.4-0.4-0.4-1,0-1.4C16.6,6.7,17.2,6.7,17.6,7.1z M4.9,19.9c0.4,0.4,0.4,1,0,1.4
	s-1,0.4-1.4,0c-0.4-0.4-0.4-1,0-1.4C3.9,19.5,4.5,19.5,4.9,19.9z M17.6,19.9c0.4,0.4,0.4,1,0,1.4c-0.4,0.4-1,0.4-1.4,0
	c-0.4-0.4-0.4-1,0-1.4C16.6,19.5,17.2,19.5,17.6,19.9z M3.5,8.5c-0.4-0.4-0.4-1,0-1.4c0.4-0.4,1-0.4,1.4,0c0.4,0.4,0.4,1,0,1.4
	C4.5,8.9,3.9,8.9,3.5,8.5z"/>
</svg>
