<?xml version="1.0" encoding="utf-8"?>
<!-- Generator: Adobe Illustrator 22.0.0, SVG Export Plug-In . SVG Version: 6.00 Build 0)  -->
<svg version="1.1" id="Layer_1" xmlns="http://www.w3.org/2000/svg" xmlns:xlink="http://www.w3.org/1999/xlink" x="0px" y="0px"
	 viewBox="0 0 32.6 32.9" style="enable-background:new 0 0 32.6 32.9;" xml:space="preserve">
<style type="text/css">
	.st0{fill:#334963;}
</style>
<path id="sun_x5F_star_2_" class="st0" d="M16.3,5.4c-6.2,0-11.2,5-11.2,11.2c0,6.2,5,11.2,11.2,11.2s11.2-5,11.2-11.2
	C27.5,10.4,22.5,5.4,16.3,5.4z M16.3,24.5c-4.4,0-8-3.6-8-8s3.6-8,8-8s8,3.6,8,8S20.7,24.5,16.3,24.5z M14.7,2.2
	c0-0.9,0.7-1.6,1.6-1.6s1.6,0.7,1.6,1.6c0,0.9-0.7,1.6-1.6,1.6S14.7,3,14.7,2.2z M17.9,30.9c0,0.9-0.7,1.6-1.6,1.6s-1.6-0.7-1.6-1.6
	c0-0.9,0.7-1.6,1.6-1.6S17.9,30.1,17.9,30.9z M32.3,16.5c0,0.9-0.7,1.6-1.6,1.6s-1.6-0.7-1.6-1.6c0-0.9,0.7-1.6,1.6-1.6
	S32.3,15.7,32.3,16.5z M3.5,16.5c0,0.9-0.7,1.6-1.6,1.6s-1.6-0.7-1.6-1.6C0.3,15.7,1,15,1.9,15S3.5,15.7,3.5,16.5z M27.6,5.2
	c0.6,0.6,0.6,1.6,0,2.3c-0.6,0.6-1.6,0.6-2.3,0c-0.6-0.6-0.6-1.6,0-2.3C26,4.6,27,4.6,27.6,5.2z M7.3,25.6c0.6,0.6,0.6,1.6,0,2.3
	c-0.6,0.6-1.6,0.6-2.3,0c-0.6-0.6-0.6-1.6,0-2.3C5.6,25,6.6,25,7.3,25.6z M27.6,25.6c0.6,0.6,0.6,1.6,0,2.3c-0.6,0.6-1.6,0.6-2.3,0
	c-0.6-0.6-0.6-1.6,0-2.3C26,25,27,25,27.6,25.6z M5,7.5C4.4,6.9,4.4,5.9,5,5.2c0.6-0.6,1.6-0.6,2.3,0c0.6,0.6,0.6,1.6,0,2.3
	C6.6,8.1,5.6,8.1,5,7.5z"/>
</svg>
