<?xml version="1.0" encoding="utf-8"?>
<!-- Generator: Adobe Illustrator 22.0.0, SVG Export Plug-In . SVG Version: 6.00 Build 0)  -->
<svg version="1.1" id="Layer_1" xmlns="http://www.w3.org/2000/svg" xmlns:xlink="http://www.w3.org/1999/xlink" x="0px" y="0px"
	 viewBox="0 0 32.6 32.9" style="enable-background:new 0 0 32.6 32.9;" xml:space="preserve">
<style type="text/css">
	.st0{fill:#FFFFFF;}
</style>
<path id="linkedin_1_" class="st0" d="M11,26H6V13h5V26z M8.4,10.9C7.1,10.9,6,9.8,6,8.5C6,7.1,7.1,6,8.4,6s2.4,1.1,2.4,2.5
	C10.9,9.8,9.8,10.9,8.4,10.9z M26,26h-4c0,0,0-5.1,0-7s-0.8-3-2.4-3C18,16,17,17.1,17,19c0,2.1,0,7,0,7h-4V13h4v1.5
	c0,0,1.3-2.2,4.1-2.2c2.8,0,4.9,1.7,4.9,5.3C26,21.1,26,26,26,26z"/>
</svg>
