<?xml version="1.0" encoding="utf-8"?>
<!-- Generator: Adobe Illustrator 22.0.0, SVG Export Plug-In . SVG Version: 6.00 Build 0)  -->
<svg version="1.1" xmlns="http://www.w3.org/2000/svg" xmlns:xlink="http://www.w3.org/1999/xlink" x="0px" y="0px"
	 viewBox="0 0 131.2 134.1" style="enable-background:new 0 0 131.2 134.1;" xml:space="preserve">
<style type="text/css">
	.st0{fill:#FFFFFF;}
	.st1{fill:url(#SVGID_1_);}
	.st2{fill:#334963;}
	.st3{fill:url(#SVGID_2_);}
</style>
<g id="Layer_1">
	<g>
		<path class="st0" d="M38.2,29.1c-0.2,0-0.3,0-0.5,0c-0.6,0.1-1.1,0.3-1.5,0.5c-1.1,0.7-1.8,1.9-1.8,3.2c0,1.9,1.5,3.5,3.4,3.8
			c0.1,0,0.3,0,0.4,0c0.4,0,0.8-0.1,1.2-0.2c1.5-0.5,2.6-1.9,2.6-3.6C42,30.8,40.3,29.1,38.2,29.1z"/>
		<path class="st0" d="M40.6,44.4c1.1,0,2.2-0.2,3.2-0.5c-2.3-1.8-4-3.6-5.2-5.6c-0.2,0-0.3,0-0.5,0c-3,0-5.5-2.5-5.5-5.5
			c0-2.4,1.5-4.4,3.6-5.2c0.3-2.2,1-4.3,2-6.1c-5.2,1.1-9.2,5.7-9.2,11.3C29.1,39.2,34.3,44.4,40.6,44.4z"/>
		<path class="st0" d="M38.2,27.4c3,0,5.5,2.5,5.5,5.5c0,2.3-1.4,4.3-3.4,5.1c1.2,1.7,2.8,3.5,4.9,5.1c0.1,0.1,0.2,0.2,0.2,0.3
			c4-1.8,6.7-5.8,6.7-10.4c0-6.4-5.1-11.5-11.5-11.5c-0.2,0-0.4,0-0.5,0c0,0.1,0,0.1-0.1,0.2c-1.1,1.7-1.8,3.7-2.2,5.8
			C38,27.4,38.1,27.4,38.2,27.4z"/>
		<path class="st0" d="M48.4,44.4c-0.4,0-0.7,0.2-0.8,0.6l0,0.2c0,0.4,0.2,0.7,0.6,0.8l2.6,0.3c0.4,0,0.7-0.2,0.8-0.6l0-0.2
			c0-0.4-0.2-0.7-0.6-0.8L48.4,44.4z"/>
		<path class="st0" d="M80.4,75.8c0.2,0,0.4-0.2,0.4-0.4v-1.2c0-0.2-0.2-0.4-0.4-0.4H68c1.1-0.6,1.9-1.7,1.9-3.1
			c0-1.4-0.9-2.6-2.1-3.2c-0.4-0.2-0.9-0.3-1.3-0.3L49.7,67l-6.8-9.6l-4.2-5.8c-0.1-0.2-0.3-0.4-0.5-0.5C38.1,51,38.1,51,38,51
			c-0.1-0.1-0.2-0.2-0.4-0.2c-0.1,0-0.1-0.1-0.2-0.1c-0.1-0.1-0.3-0.1-0.4-0.1c-0.1,0-0.1,0-0.2-0.1c-0.2,0-0.3,0-0.5-0.1
			c0,0-0.1,0-0.1,0c0,0,0,0,0,0c0,0-0.1,0-0.1,0c-0.1,0-0.3,0-0.4,0c-0.1,0-0.1,0-0.2,0c-0.1,0-0.2,0.1-0.4,0.1
			c-0.1,0-0.1,0-0.2,0.1c-0.2,0.1-0.3,0.2-0.5,0.3c0,0,0,0,0,0c-0.8,0.6-1.3,1.6-1.2,2.5c0,0.6,0.2,1.2,0.6,1.7l8.9,12.4l3.6,5.1
			c0.3,0.4,0.6,0.6,0.9,0.8c0.3,0.2,0.6,0.2,0.9,0.3c0.1,0,0.2,0.1,0.3,0.1c0.2,0,0.4,0.1,0.6,0.1l16.9,0.3c0,0,0,0,0,0v1.2
			c0,0.2,0.2,0.4,0.4,0.4H80.4z"/>
		<path class="st0" d="M58.3,87.5l0-0.2c-1-5.4-6.5-5.4-6.5-5.4l-6,0.6c-0.9-1.3-1.7-3.3-1.7-6c0-2.1-0.4-4.4-0.9-6.5L32.9,55.7
			c-1.3-1.8-0.9-4.3,0.9-5.6c0.7-0.5,1.5-0.7,2.3-0.7c1.3,0,2.5,0.6,3.3,1.7l3.8,5.4c0.1-0.3,0.2-0.6,0.3-1c0.8-3.2,1.3-9.4-6.2-9.8
			c-2.6-0.2-5.1,0.6-7.2,2.2c-5.1,3.8-7.4,11.2-5.1,33.4c0,0,0.4,1.6,1.3,3.1l0.9,2.8c0.4,1.2,1.5,2,2.6,2c0,0.7,0.2,1.2,0.4,1.7
			c-3.5,0.3-5.6,0.7-6.9,1.1L14.1,76c1.6,1.3,3.9-0.1,3.5-2.1c-1.9-8.4-6-24.2-10.5-28.5c-0.5-0.5-1.3-0.7-2.1-0.5L4.5,45
			c-0.9,0.2-1.5,0.9-1.6,1.8c-0.5,3.7-1.2,14,4,20.5c0,0,0.4,0.8,1.2,1.9l13.6,25.5c0.1,0.2,0.2,0.5,0.4,0.8l0.2,0.3l0.1,0
			c0.6,0.6,1.6,1.2,3.3,1.7c1.6,0.6,3.9,1.2,7.1,1.5v0.6c0,0.6,0.5,1.2,1.2,1.2h0.6c0.1,0.5,0.6,0.9,1.1,0.9h1.5v13.6l-14.5,5.9
			c-0.8,1-0.4,2-0.4,2l0.1,0c-0.1,0.2-0.1,0.4-0.1,0.7c0,1.5,1.2,2.6,2.6,2.6c1.5,0,2.6-1.2,2.6-2.6c0-0.6-0.2-1.2-0.6-1.7l10.8-5
			v2.8c-1,0.4-1.7,1.3-1.7,2.4c0,1.5,1.2,2.6,2.6,2.6c1.5,0,2.6-1.2,2.6-2.6c0-1.1-0.7-2.1-1.7-2.4V117l11.1,5.1
			c-0.8,0.4-1.4,1.3-1.4,2.3c0,1.5,1.2,2.6,2.6,2.6s2.6-1.2,2.6-2.6c0-0.2,0-0.5-0.1-0.7l0.1-0.1c0,0,0.5-1.2-0.2-2.1l0,0l-0.1,0
			c0,0,0,0,0,0l-0.1,0l-14.3-6.2v-13.6h1c0.6,0,1-0.4,1.1-0.9h0.6c0.6,0,1.2-0.5,1.2-1.2v-0.7c2.4-0.3,4.5-0.7,6.2-1.3l4.1,10.1
			l1.3,4.3c0.8,2.5,3.5,4,6,3.2c2.5-0.8,4-3.5,3.2-6L58.3,87.5z"/>
		<path class="st0" d="M82.6,75.8h26.2c0.2,0,0.4-0.2,0.4-0.4v-1.8c0-0.2-0.2-0.4-0.4-0.4h-6.6l-12-24.3l2.1-27.5l-3.3,1l-3.6,46.8
			l3.2,0.2l0.3-3.3l9.8,7.1H82.6c-0.2,0-0.4,0.2-0.4,0.4v1.8C82.2,75.6,82.4,75.8,82.6,75.8z M89.1,64.6L90,52.1l9.4,19.4L89.1,64.6
			z"/>
		<path class="st0" d="M110.7,77.2c-14.9,0-29.7,0-44.6,0c0,0.6,0,1.3,0,1.9c0.6,0,1.2,0,1.8,0c0,0,0,0,0,0h0.9c0,0,0,0,0,0l0,0
			c0.8-0.2,1.1,0.1,0.9,1c0,1,0.1,1.9,0.1,2.9c0.6,0.3,1.9-0.7,1.8,1l0,0c0.8-0.2,1.1,0.1,0.9,1c0,2.7,0,5.4,0,8.1
			c0,11.3,0,22.6,0,33.9c0.6,0,1.2,0,1.8,0c0-1.8,0-3.6,0-5.4c0-0.8,0.2-1.1,0.9-1h3.9V92.4v-1.8h1.8h39.3h1.8v1.8v28.3h0.8
			c0,0.2,0,0.3,0,0.5c0,0.3,0,0.6,0,0.9c0,0.7,0,1.3,0,2c0,1,0,1.9,0.1,2.9c0.6,0,1.2,0,1.8,0c0-1.6,0-3.1,0.1-4.7c0,0,0-0.1,0-0.1
			c0,0,0,0,0,0v-0.6v-1.7v-1.1V117c-0.1-0.2-0.1-0.4,0-0.7c0-10.4,0-20.8,0-31.2c0-0.8,0.2-1.1,1-1.1c0-1.6,1.2-0.6,1.8-0.9
			c0-1,0.1-2,0-3c0-0.8,0.3-1,1-0.9c0.9,0,1.8,0,2.7-0.1c0-0.6,0-1.3,0-1.9l0,0C124.5,77.2,117.6,77.2,110.7,77.2z"/>
		<polygon class="st0" points="81.1,120.7 81.1,124.5 120.4,124.5 120.4,120.7 120.4,92.4 81.1,92.4 		"/>
	</g>
	<linearGradient id="SVGID_1_" gradientUnits="userSpaceOnUse" x1="57.684" y1="40.9375" x2="89.0143" y2="40.9375">
		<stop  offset="0" style="stop-color:#112031;stop-opacity:0"/>
		<stop  offset="0.3366" style="stop-color:#565866;stop-opacity:6.731593e-02"/>
		<stop  offset="0.659" style="stop-color:#A09FA8;stop-opacity:0.1318"/>
		<stop  offset="0.887" style="stop-color:#DDDCDF;stop-opacity:0.1774"/>
		<stop  offset="1" style="stop-color:#FFFFFF;stop-opacity:0.2"/>
	</linearGradient>
	<polyline class="st1" points="89,22.4 60.1,5.3 57.7,76.6 85.5,69.2 	"/>
</g>
<g id="Layer_2">
	<g>
		<path class="st2" d="M38.2,29.1c-0.2,0-0.3,0-0.5,0c-0.6,0.1-1.1,0.3-1.5,0.5c-1.1,0.7-1.8,1.9-1.8,3.2c0,1.9,1.5,3.5,3.4,3.8
			c0.1,0,0.3,0,0.4,0c0.4,0,0.8-0.1,1.2-0.2c1.5-0.5,2.6-1.9,2.6-3.6C42,30.8,40.3,29.1,38.2,29.1z"/>
		<path class="st2" d="M40.6,44.4c1.1,0,2.2-0.2,3.2-0.5c-2.3-1.8-4-3.6-5.2-5.6c-0.2,0-0.3,0-0.5,0c-3,0-5.5-2.5-5.5-5.5
			c0-2.4,1.5-4.4,3.6-5.2c0.3-2.2,1-4.3,2-6.1c-5.2,1.1-9.2,5.7-9.2,11.3C29.1,39.2,34.3,44.4,40.6,44.4z"/>
		<path class="st2" d="M38.2,27.4c3,0,5.5,2.5,5.5,5.5c0,2.3-1.4,4.3-3.4,5.1c1.2,1.7,2.8,3.5,4.9,5.1c0.1,0.1,0.2,0.2,0.2,0.3
			c4-1.8,6.7-5.8,6.7-10.4c0-6.4-5.1-11.5-11.5-11.5c-0.2,0-0.4,0-0.5,0c0,0.1,0,0.1-0.1,0.2c-1.1,1.7-1.8,3.7-2.2,5.8
			C38,27.4,38.1,27.4,38.2,27.4z"/>
		<path class="st2" d="M48.4,44.4c-0.4,0-0.7,0.2-0.8,0.6l0,0.2c0,0.4,0.2,0.7,0.6,0.8l2.6,0.3c0.4,0,0.7-0.2,0.8-0.6l0-0.2
			c0-0.4-0.2-0.7-0.6-0.8L48.4,44.4z"/>
		<path class="st2" d="M80.4,75.8c0.2,0,0.4-0.2,0.4-0.4v-1.2c0-0.2-0.2-0.4-0.4-0.4H68c1.1-0.6,1.9-1.7,1.9-3.1
			c0-1.4-0.9-2.6-2.1-3.2c-0.4-0.2-0.9-0.3-1.3-0.3L49.7,67l-6.8-9.6l-4.2-5.8c-0.1-0.2-0.3-0.4-0.5-0.5C38.1,51,38.1,51,38,51
			c-0.1-0.1-0.2-0.2-0.4-0.2c-0.1,0-0.1-0.1-0.2-0.1c-0.1-0.1-0.3-0.1-0.4-0.1c-0.1,0-0.1,0-0.2-0.1c-0.2,0-0.3,0-0.5-0.1
			c0,0-0.1,0-0.1,0c0,0,0,0,0,0c0,0-0.1,0-0.1,0c-0.1,0-0.3,0-0.4,0c-0.1,0-0.1,0-0.2,0c-0.1,0-0.2,0.1-0.4,0.1
			c-0.1,0-0.1,0-0.2,0.1c-0.2,0.1-0.3,0.2-0.5,0.3c0,0,0,0,0,0c-0.8,0.6-1.3,1.6-1.2,2.5c0,0.6,0.2,1.2,0.6,1.7l8.9,12.4l3.6,5.1
			c0.3,0.4,0.6,0.6,0.9,0.8c0.3,0.2,0.6,0.2,0.9,0.3c0.1,0,0.2,0.1,0.3,0.1c0.2,0,0.4,0.1,0.6,0.1l16.9,0.3c0,0,0,0,0,0v1.2
			c0,0.2,0.2,0.4,0.4,0.4H80.4z"/>
		<path class="st2" d="M58.3,87.5l0-0.2c-1-5.4-6.5-5.4-6.5-5.4l-6,0.6c-0.9-1.3-1.7-3.3-1.7-6c0-2.1-0.4-4.4-0.9-6.5L32.9,55.7
			c-1.3-1.8-0.9-4.3,0.9-5.6c0.7-0.5,1.5-0.7,2.3-0.7c1.3,0,2.5,0.6,3.3,1.7l3.8,5.4c0.1-0.3,0.2-0.6,0.3-1c0.8-3.2,1.3-9.4-6.2-9.8
			c-2.6-0.2-5.1,0.6-7.2,2.2c-5.1,3.8-7.4,11.2-5.1,33.4c0,0,0.4,1.6,1.3,3.1l0.9,2.8c0.4,1.2,1.5,2,2.6,2c0,0.7,0.2,1.2,0.4,1.7
			c-3.5,0.3-5.6,0.7-6.9,1.1L14.1,76c1.6,1.3,3.9-0.1,3.5-2.1c-1.9-8.4-6-24.2-10.5-28.5c-0.5-0.5-1.3-0.7-2.1-0.5L4.5,45
			c-0.9,0.2-1.5,0.9-1.6,1.8c-0.5,3.7-1.2,14,4,20.5c0,0,0.4,0.8,1.2,1.9l13.6,25.5c0.1,0.2,0.2,0.5,0.4,0.8l0.2,0.3l0.1,0
			c0.6,0.6,1.6,1.2,3.3,1.7c1.6,0.6,3.9,1.2,7.1,1.5v0.6c0,0.6,0.5,1.2,1.2,1.2h0.6c0.1,0.5,0.6,0.9,1.1,0.9h1.5v13.6l-14.5,5.9
			c-0.8,1-0.4,2-0.4,2l0.1,0c-0.1,0.2-0.1,0.4-0.1,0.7c0,1.5,1.2,2.6,2.6,2.6c1.5,0,2.6-1.2,2.6-2.6c0-0.6-0.2-1.2-0.6-1.7l10.8-5
			v2.8c-1,0.4-1.7,1.3-1.7,2.4c0,1.5,1.2,2.6,2.6,2.6c1.5,0,2.6-1.2,2.6-2.6c0-1.1-0.7-2.1-1.7-2.4V117l11.1,5.1
			c-0.8,0.4-1.4,1.3-1.4,2.3c0,1.5,1.2,2.6,2.6,2.6s2.6-1.2,2.6-2.6c0-0.2,0-0.5-0.1-0.7l0.1-0.1c0,0,0.5-1.2-0.2-2.1l0,0l-0.1,0
			c0,0,0,0,0,0l-0.1,0l-14.3-6.2v-13.6h1c0.6,0,1-0.4,1.1-0.9h0.6c0.6,0,1.2-0.5,1.2-1.2v-0.7c2.4-0.3,4.5-0.7,6.2-1.3l4.1,10.1
			l1.3,4.3c0.8,2.5,3.5,4,6,3.2c2.5-0.8,4-3.5,3.2-6L58.3,87.5z"/>
		<path class="st2" d="M82.6,75.8h26.2c0.2,0,0.4-0.2,0.4-0.4v-1.8c0-0.2-0.2-0.4-0.4-0.4h-6.6l-12-24.3l2.1-27.5l-3.3,1l-3.6,46.8
			l3.2,0.2l0.3-3.3l9.8,7.1H82.6c-0.2,0-0.4,0.2-0.4,0.4v1.8C82.2,75.6,82.4,75.8,82.6,75.8z M89.1,64.6L90,52.1l9.4,19.4L89.1,64.6
			z"/>
		<path class="st2" d="M110.7,77.2c-14.9,0-29.7,0-44.6,0c0,0.6,0,1.3,0,1.9c0.6,0,1.2,0,1.8,0c0,0,0,0,0,0h0.9c0,0,0,0,0,0l0,0
			c0.8-0.2,1.1,0.1,0.9,1c0,1,0.1,1.9,0.1,2.9c0.6,0.3,1.9-0.7,1.8,1l0,0c0.8-0.2,1.1,0.1,0.9,1c0,2.7,0,5.4,0,8.1
			c0,11.3,0,22.6,0,33.9c0.6,0,1.2,0,1.8,0c0-1.8,0-3.6,0-5.4c0-0.8,0.2-1.1,0.9-1h3.9V92.4v-1.8h1.8h39.3h1.8v1.8v28.3h0.8
			c0,0.2,0,0.3,0,0.5c0,0.3,0,0.6,0,0.9c0,0.7,0,1.3,0,2c0,1,0,1.9,0.1,2.9c0.6,0,1.2,0,1.8,0c0-1.6,0-3.1,0.1-4.7c0,0,0-0.1,0-0.1
			c0,0,0,0,0,0v-0.6v-1.7v-1.1V117c-0.1-0.2-0.1-0.4,0-0.7c0-10.4,0-20.8,0-31.2c0-0.8,0.2-1.1,1-1.1c0-1.6,1.2-0.6,1.8-0.9
			c0-1,0.1-2,0-3c0-0.8,0.3-1,1-0.9c0.9,0,1.8,0,2.7-0.1c0-0.6,0-1.3,0-1.9l0,0C124.5,77.2,117.6,77.2,110.7,77.2z"/>
		<polygon class="st2" points="81.1,120.7 81.1,124.5 120.4,124.5 120.4,120.7 120.4,92.4 81.1,92.4 		"/>
	</g>
	<linearGradient id="SVGID_2_" gradientUnits="userSpaceOnUse" x1="57.684" y1="40.9375" x2="89.0143" y2="40.9375">
		<stop  offset="0" style="stop-color:#FFFFFF;stop-opacity:0"/>
		<stop  offset="1" style="stop-color:#334963;stop-opacity:0.2"/>
	</linearGradient>
	<polyline class="st3" points="89,22.4 60.1,5.3 57.7,76.6 85.5,69.2 	"/>
</g>
</svg>
